<svg xmlns="http://www.w3.org/2000/svg" viewBox="0 0 1280 640"><g fill="none" fill-rule="evenodd"><rect fill-opacity=".65" fill="#FFF" x="525" y="58" width="232" height="232" rx="8"/><path d="M719 78H599c-9.938 0-18 8.063-18 18v18h-18c-9.938 0-18 8.063-18 18v120c0 9.938 8.063 18 18 18h120c9.938 0 18-8.063 18-18v-18h18c9.938 0 18-8.063 18-18V96c0-9.938-8.063-18-18-18zm-162 54c0-3.3 2.7-6 6-6h120c3.3 0 6 2.7 6 6v30H557v-30zm132 120c0 3.3-2.7 6-6 6H563c-3.3 0-6-2.7-6-6v-78h132v78zm36-36c0 3.3-2.7 6-6 6h-18v-90c0-9.938-8.063-18-18-18h-90V96c0-3.3 2.7-6 6-6h120c3.3 0 6 2.7 6 6v120z" fill="#000" fill-rule="nonzero"/><rect fill-opacity=".9" fill="#FFF" x="275" y="304" width="731" height="101" rx="8"/><rect fill-opacity=".65" fill="#FFF" x="411" y="419" width="459" height="106" rx="8"/><path d="M307.5 380.168c-2.968 0-4.452-.812-4.452-2.436V350.18c0-2.632-.084-4.704-.252-6.216-.168-1.512-.336-2.66-.504-3.444-.168-.784-.252-1.372-.252-1.764 0-.448.308-.826.924-1.134.616-.308 1.372-.56 2.268-.756a22.822 22.822 0 012.604-.42c.84-.084 1.484-.126 1.932-.126.784 0 1.386.308 1.806.924.42.616.714 1.344.882 2.184.168.84.336 1.624.504 2.352 1.064-1.736 2.338-3.22 3.822-4.452 1.484-1.232 3.318-1.848 5.502-1.848 1.96 0 3.262.364 3.906 1.092.644.728.966 1.736.966 3.024 0 .504-.098 1.246-.294 2.226-.196.98-.462 1.876-.798 2.688-.336.812-.756 1.218-1.26 1.218-.56 0-1.12-.126-1.68-.378-.56-.252-1.372-.378-2.436-.378-1.232 0-2.352.308-3.36.924-1.008.616-1.834 1.274-2.478 1.974-.644.7-1.05 1.246-1.218 1.638v28.224c0 1.624-1.512 2.436-4.536 2.436H307.5zm43.932.42c-7.392 0-12.824-1.96-16.296-5.88-3.472-3.92-5.208-9.38-5.208-16.38 0-5.376.826-9.744 2.478-13.104 1.652-3.36 3.99-5.824 7.014-7.392 3.024-1.568 6.58-2.352 10.668-2.352 4.256 0 7.686.938 10.29 2.814 2.604 1.876 4.522 4.452 5.754 7.728 1.232 3.276 1.848 7.014 1.848 11.214 0 .392-.238.952-.714 1.68a9.966 9.966 0 01-1.638 1.932c-.616.56-1.092.84-1.428.84h-23.184c.28 3.752 1.344 6.426 3.192 8.022s4.368 2.394 7.56 2.394c2.016 0 3.766-.252 5.25-.756s2.716-.994 3.696-1.47 1.638-.714 1.974-.714c.504 0 1.064.378 1.68 1.134a12.385 12.385 0 011.554 2.436c.42.868.63 1.554.63 2.058 0 .896-.49 1.694-1.47 2.394-.98.7-2.254 1.316-3.822 1.848a27.84 27.84 0 01-4.956 1.176c-1.736.252-3.36.378-4.872.378zm-10.416-26.46h16.464c0-3.136-.602-5.614-1.806-7.434-1.204-1.82-3.094-2.73-5.67-2.73-2.408 0-4.41.784-6.006 2.352-1.596 1.568-2.59 4.172-2.982 7.812zm47.124 26.46c-4.368 0-7.644-1.134-9.828-3.402-2.184-2.268-3.276-5.25-3.276-8.946 0-2.352.476-4.48 1.428-6.384s2.422-3.542 4.41-4.914c1.988-1.372 4.606-2.408 7.854-3.108 3.248-.7 7.168-1.078 11.76-1.134v-3.192c0-1.68-.574-3.024-1.722-4.032-1.148-1.008-3.066-1.512-5.754-1.512-2.184 0-4.088.252-5.712.756-1.624.504-2.926 1.008-3.906 1.512s-1.638.756-1.974.756c-.504 0-1.064-.392-1.68-1.176a12.095 12.095 0 01-1.554-2.604c-.42-.952-.63-1.652-.63-2.1 0-.896.7-1.778 2.1-2.646 1.4-.868 3.318-1.582 5.754-2.142 2.436-.56 5.138-.84 8.106-.84 4.088 0 7.42.574 9.996 1.722 2.576 1.148 4.48 2.744 5.712 4.788 1.232 2.044 1.848 4.438 1.848 7.182v16.884c0 2.688.084 4.802.252 6.342.168 1.54.336 2.688.504 3.444.168.756.252 1.358.252 1.806 0 .448-.308.826-.924 1.134-.616.308-1.372.56-2.268.756-.896.196-1.764.336-2.604.42-.84.084-1.484.126-1.932.126-.84 0-1.456-.322-1.848-.966-.392-.644-.672-1.428-.84-2.352a54.394 54.394 0 00-.504-2.478c-.504.616-1.316 1.428-2.436 2.436-1.12 1.008-2.548 1.904-4.284 2.688-1.736.784-3.836 1.176-6.3 1.176zm2.856-8.484c2.128 0 3.99-.546 5.586-1.638 1.596-1.092 2.898-2.394 3.906-3.906v-6.384c-2.072 0-3.99.112-5.754.336-1.764.224-3.332.588-4.704 1.092-1.372.504-2.422 1.218-3.15 2.142-.728.924-1.092 2.086-1.092 3.486 0 1.512.434 2.702 1.302 3.57.868.868 2.17 1.302 3.906 1.302zm50.904 8.484c-7 0-12.25-1.806-15.75-5.418s-5.25-9.282-5.25-17.01c0-3.976.476-7.392 1.428-10.248.952-2.856 2.338-5.208 4.158-7.056 1.82-1.848 4.032-3.206 6.636-4.074 2.604-.868 5.558-1.302 8.862-1.302 2.072 0 4.13.196 6.174.588 2.044.392 3.766.98 5.166 1.764 1.4.784 2.1 1.708 2.1 2.772 0 .448-.224 1.148-.672 2.1a13.555 13.555 0 01-1.554 2.562c-.588.756-1.134 1.134-1.638 1.134-.112 0-.28-.056-.504-.168a10.014 10.014 0 00-.756-.336c-.728-.392-1.75-.812-3.066-1.26-1.316-.448-2.954-.672-4.914-.672-3.472 0-6.076 1.106-7.812 3.318-1.736 2.212-2.604 5.754-2.604 10.626 0 4.816.798 8.386 2.394 10.71 1.596 2.324 4.27 3.486 8.022 3.486 2.072 0 3.822-.252 5.25-.756a92.5 92.5 0 003.402-1.26c.28-.112.532-.21.756-.294.224-.084.392-.126.504-.126.56 0 1.134.364 1.722 1.092.588.728 1.092 1.54 1.512 2.436.42.896.63 1.596.63 2.1 0 .952-.518 1.764-1.554 2.436-1.036.672-2.324 1.218-3.864 1.638-1.54.42-3.108.728-4.704.924-1.596.196-2.954.294-4.074.294zm35.028 0c-1.624 0-3.15-.224-4.578-.672a9.49 9.49 0 01-3.738-2.184c-1.064-1.008-1.904-2.338-2.52-3.99-.616-1.652-.924-3.654-.924-6.006v-23.184H462.9c-1.512 0-2.268-1.204-2.268-3.612v-1.26c0-2.408.756-3.612 2.268-3.612h2.268l1.092-8.232c.224-1.624 1.512-2.436 3.864-2.436h2.016c2.408 0 3.612.812 3.612 2.436v8.232h5.124c1.512 0 2.268 1.204 2.268 3.612v1.26c0 2.408-.756 3.612-2.268 3.612h-5.124v23.016c0 1.68.308 2.856.924 3.528.616.672 1.484 1.008 2.604 1.008.728 0 1.302-.056 1.722-.168.42-.112.77-.168 1.05-.168.504 0 .924.392 1.26 1.176.336.784.602 1.61.798 2.478.196.868.294 1.414.294 1.638 0 1.064-.448 1.862-1.344 2.394-.896.532-1.918.854-3.066.966-1.148.112-2.17.168-3.066.168zm14.7-18.9c-1.456 0-2.184-1.204-2.184-3.612v-.672c0-2.408.728-3.612 2.184-3.612h16.8c1.456 0 2.184 1.204 2.184 3.612v.672c0 2.408-.728 3.612-2.184 3.612h-16.8zm32.172 18.48c-2.968 0-4.452-.812-4.452-2.436V350.18c0-2.632-.084-4.704-.252-6.216-.168-1.512-.336-2.66-.504-3.444-.168-.784-.252-1.372-.252-1.764 0-.448.308-.826.924-1.134.616-.308 1.372-.56 2.268-.756a22.54 22.54 0 012.646-.42c.868-.084 1.498-.126 1.89-.126.84 0 1.456.308 1.848.924.392.616.686 1.344.882 2.184l.546 2.352c1.4-1.736 3.206-3.22 5.418-4.452 2.212-1.232 4.634-1.848 7.266-1.848 4.256 0 7.448 1.134 9.576 3.402 2.128 2.268 3.192 5.67 3.192 10.206v28.644c0 1.624-1.484 2.436-4.452 2.436h-1.596c-2.968 0-4.452-.812-4.452-2.436v-27.216c0-1.96-.504-3.486-1.512-4.578s-2.604-1.638-4.788-1.638c-1.792 0-3.374.56-4.746 1.68-1.372 1.12-2.478 2.296-3.318 3.528v28.224c0 1.624-1.484 2.436-4.452 2.436h-1.68zm61.824.42c-7.392 0-12.824-1.96-16.296-5.88-3.472-3.92-5.208-9.38-5.208-16.38 0-5.376.826-9.744 2.478-13.104 1.652-3.36 3.99-5.824 7.014-7.392 3.024-1.568 6.58-2.352 10.668-2.352 4.256 0 7.686.938 10.29 2.814 2.604 1.876 4.522 4.452 5.754 7.728 1.232 3.276 1.848 7.014 1.848 11.214 0 .392-.238.952-.714 1.68a9.966 9.966 0 01-1.638 1.932c-.616.56-1.092.84-1.428.84h-23.184c.28 3.752 1.344 6.426 3.192 8.022s4.368 2.394 7.56 2.394c2.016 0 3.766-.252 5.25-.756s2.716-.994 3.696-1.47 1.638-.714 1.974-.714c.504 0 1.064.378 1.68 1.134a12.385 12.385 0 011.554 2.436c.42.868.63 1.554.63 2.058 0 .896-.49 1.694-1.47 2.394-.98.7-2.254 1.316-3.822 1.848a27.84 27.84 0 01-4.956 1.176c-1.736.252-3.36.378-4.872.378zm-10.416-26.46h16.464c0-3.136-.602-5.614-1.806-7.434-1.204-1.82-3.094-2.73-5.67-2.73-2.408 0-4.41.784-6.006 2.352-1.596 1.568-2.59 4.172-2.982 7.812zm46.536 26.04c-1.176 0-2.128-.14-2.856-.42-.728-.28-1.148-.672-1.26-1.176l-10.752-39.312a6.64 6.64 0 00-.21-.798 2.073 2.073 0 01-.126-.63c0-.616.378-1.092 1.134-1.428.756-.336 1.974-.504 3.654-.504 1.792 0 3.122.126 3.99.378.868.252 1.358.658 1.47 1.218l5.712 22.848a43.67 43.67 0 01.882 4.032c.252 1.456.462 2.744.63 3.864h.336c.112-.84.308-1.988.588-3.444.28-1.456.644-2.996 1.092-4.62l5.628-22.596c.168-.616.602-1.05 1.302-1.302.7-.252 1.638-.378 2.814-.378h1.596c1.008 0 1.918.126 2.73.378s1.274.686 1.386 1.302l5.712 22.848c.504 1.904.868 3.5 1.092 4.788.224 1.288.392 2.38.504 3.276h.168c.224-1.232.462-2.59.714-4.074.252-1.484.546-2.842.882-4.074l5.712-22.848c.112-.56.56-.966 1.344-1.218s1.82-.378 3.108-.378c3.024 0 4.536.644 4.536 1.932v.546c0 .196-.056.434-.168.714l-10.416 39.48c-.112.504-.574.896-1.386 1.176-.812.28-1.722.42-2.73.42h-3.612c-1.176 0-2.128-.14-2.856-.42-.728-.28-1.148-.672-1.26-1.176l-5.46-21.336a33.394 33.394 0 01-.672-3.486 191.989 191.989 0 00-.504-3.402h-.252a120.256 120.256 0 01-.42 3.318 38.19 38.19 0 01-.672 3.57l-5.292 21.336c-.112.504-.574.896-1.386 1.176-.812.28-1.75.42-2.814.42h-3.612zm50.736-18.48c-1.456 0-2.184-1.204-2.184-3.612v-.672c0-2.408.728-3.612 2.184-3.612h16.8c1.456 0 2.184 1.204 2.184 3.612v.672c0 2.408-.728 3.612-2.184 3.612h-16.8zm38.892 18.48c-1.176 0-2.128-.14-2.856-.42-.728-.28-1.148-.672-1.26-1.176l-10.752-39.312a6.64 6.64 0 00-.21-.798 2.073 2.073 0 01-.126-.63c0-.616.378-1.092 1.134-1.428.756-.336 1.974-.504 3.654-.504 1.792 0 3.122.126 3.99.378.868.252 1.358.658 1.47 1.218l5.712 22.848a43.67 43.67 0 01.882 4.032c.252 1.456.462 2.744.63 3.864h.336c.112-.84.308-1.988.588-3.444.28-1.456.644-2.996 1.092-4.62l5.628-22.596c.168-.616.602-1.05 1.302-1.302.7-.252 1.638-.378 2.814-.378h1.596c1.008 0 1.918.126 2.73.378s1.274.686 1.386 1.302l5.712 22.848c.504 1.904.868 3.5 1.092 4.788.224 1.288.392 2.38.504 3.276h.168c.224-1.232.462-2.59.714-4.074.252-1.484.546-2.842.882-4.074l5.712-22.848c.112-.56.56-.966 1.344-1.218s1.82-.378 3.108-.378c3.024 0 4.536.644 4.536 1.932v.546c0 .196-.056.434-.168.714l-10.416 39.48c-.112.504-.574.896-1.386 1.176-.812.28-1.722.42-2.73.42h-3.612c-1.176 0-2.128-.14-2.856-.42-.728-.28-1.148-.672-1.26-1.176l-5.46-21.336a33.394 33.394 0 01-.672-3.486 191.989 191.989 0 00-.504-3.402h-.252a120.256 120.256 0 01-.42 3.318 38.19 38.19 0 01-.672 3.57l-5.292 21.336c-.112.504-.574.896-1.386 1.176-.812.28-1.75.42-2.814.42h-3.612zm56.028 0c-2.968 0-4.452-.812-4.452-2.436v-39.396c0-1.624 1.484-2.436 4.452-2.436h1.68c2.968 0 4.452.812 4.452 2.436v39.396c0 1.624-1.484 2.436-4.452 2.436h-1.68zm.84-48.972c-1.904 0-3.276-.21-4.116-.63-.84-.42-1.26-1.022-1.26-1.806v-6.048c0-.784.42-1.372 1.26-1.764.84-.392 2.212-.588 4.116-.588 1.904 0 3.276.196 4.116.588.84.392 1.26.98 1.26 1.764v6.048c0 .784-.42 1.386-1.26 1.806-.84.42-2.212.63-4.116.63zm21.42 48.972c-2.968 0-4.452-.812-4.452-2.436V350.18c0-2.632-.084-4.704-.252-6.216-.168-1.512-.336-2.66-.504-3.444-.168-.784-.252-1.372-.252-1.764 0-.448.308-.826.924-1.134.616-.308 1.372-.56 2.268-.756a22.54 22.54 0 012.646-.42c.868-.084 1.498-.126 1.89-.126.84 0 1.456.308 1.848.924.392.616.686 1.344.882 2.184l.546 2.352c1.4-1.736 3.206-3.22 5.418-4.452 2.212-1.232 4.634-1.848 7.266-1.848 4.256 0 7.448 1.134 9.576 3.402 2.128 2.268 3.192 5.67 3.192 10.206v28.644c0 1.624-1.484 2.436-4.452 2.436h-1.596c-2.968 0-4.452-.812-4.452-2.436v-27.216c0-1.96-.504-3.486-1.512-4.578s-2.604-1.638-4.788-1.638c-1.792 0-3.374.56-4.746 1.68-1.372 1.12-2.478 2.296-3.318 3.528v28.224c0 1.624-1.484 2.436-4.452 2.436h-1.68zm56.196.42c-3.136 0-5.894-.896-8.274-2.688-2.38-1.792-4.256-4.382-5.628-7.77-1.372-3.388-2.058-7.434-2.058-12.138 0-7 1.568-12.502 4.704-16.506 3.136-4.004 7.42-6.006 12.852-6.006 2.184 0 4.06.308 5.628.924 1.568.616 2.94 1.372 4.116 2.268V319.1c0-1.568 1.484-2.352 4.452-2.352h1.68c2.968 0 4.452.784 4.452 2.352v46.956c0 2.688.084 4.802.252 6.342.168 1.54.336 2.688.504 3.444.168.756.252 1.358.252 1.806 0 .448-.308.826-.924 1.134-.616.308-1.372.56-2.268.756a22.54 22.54 0 01-2.646.42c-.868.084-1.498.126-1.89.126-.84 0-1.456-.322-1.848-.966-.392-.644-.672-1.414-.84-2.31-.168-.896-.336-1.736-.504-2.52a15.202 15.202 0 01-5.124 4.578c-2.072 1.148-4.368 1.722-6.888 1.722zm2.94-8.736c1.68 0 3.234-.504 4.662-1.512s2.674-2.268 3.738-3.78V346.4c-.952-.728-2.058-1.302-3.318-1.722-1.26-.42-2.618-.63-4.074-.63-3.024 0-5.292 1.176-6.804 3.528-1.512 2.352-2.268 5.768-2.268 10.248 0 4.536.672 8.008 2.016 10.416 1.344 2.408 3.36 3.612 6.048 3.612zm48.804 8.736c-6.552 0-11.55-1.932-14.994-5.796-3.444-3.864-5.166-9.436-5.166-16.716 0-7.336 1.722-12.936 5.166-16.8 3.444-3.864 8.442-5.796 14.994-5.796 6.496 0 11.438 1.932 14.826 5.796 3.388 3.864 5.082 9.464 5.082 16.8 0 7.28-1.68 12.852-5.04 16.716-3.36 3.864-8.316 5.796-14.868 5.796zm-.084-8.484c3.136 0 5.446-1.176 6.93-3.528 1.484-2.352 2.226-5.88 2.226-10.584 0-4.648-.742-8.148-2.226-10.5-1.484-2.352-3.794-3.528-6.93-3.528-3.192 0-5.53 1.162-7.014 3.486-1.484 2.324-2.226 5.866-2.226 10.626 0 4.648.742 8.148 2.226 10.5 1.484 2.352 3.822 3.528 7.014 3.528zm40.068 8.064c-1.176 0-2.128-.14-2.856-.42-.728-.28-1.148-.672-1.26-1.176l-10.752-39.312a6.64 6.64 0 00-.21-.798 2.073 2.073 0 01-.126-.63c0-.616.378-1.092 1.134-1.428.756-.336 1.974-.504 3.654-.504 1.792 0 3.122.126 3.99.378.868.252 1.358.658 1.47 1.218l5.712 22.848a43.67 43.67 0 01.882 4.032c.252 1.456.462 2.744.63 3.864h.336c.112-.84.308-1.988.588-3.444.28-1.456.644-2.996 1.092-4.62l5.628-22.596c.168-.616.602-1.05 1.302-1.302.7-.252 1.638-.378 2.814-.378h1.596c1.008 0 1.918.126 2.73.378s1.274.686 1.386 1.302l5.712 22.848c.504 1.904.868 3.5 1.092 4.788.224 1.288.392 2.38.504 3.276h.168c.224-1.232.462-2.59.714-4.074.252-1.484.546-2.842.882-4.074l5.712-22.848c.112-.56.56-.966 1.344-1.218s1.82-.378 3.108-.378c3.024 0 4.536.644 4.536 1.932v.546c0 .196-.056.434-.168.714l-10.416 39.48c-.112.504-.574.896-1.386 1.176-.812.28-1.722.42-2.73.42h-3.612c-1.176 0-2.128-.14-2.856-.42-.728-.28-1.148-.672-1.26-1.176l-5.46-21.336a33.394 33.394 0 01-.672-3.486 191.989 191.989 0 00-.504-3.402h-.252a120.256 120.256 0 01-.42 3.318 38.19 38.19 0 01-.672 3.57l-5.292 21.336c-.112.504-.574.896-1.386 1.176-.812.28-1.75.42-2.814.42h-3.612zM431.286 462.072c-1.272 0-1.908-.348-1.908-1.044v-22.896c0-.888.432-1.332 1.296-1.332h7.488c.768 0 1.638.09 2.61.27.972.18 1.896.528 2.772 1.044.876.516 1.59 1.278 2.142 2.286.552 1.008.828 2.34.828 3.996 0 1.368-.21 2.514-.63 3.438-.42.924-.96 1.668-1.62 2.232a7.628 7.628 0 01-2.106 1.296c-.744.3-1.44.504-2.088.612-.648.108-1.164.162-1.548.162h-4.428v8.892c0 .696-.636 1.044-1.908 1.044h-.9zm2.808-14.004h4.032c.336 0 .714-.048 1.134-.144.42-.096.81-.276 1.17-.54.36-.264.66-.636.9-1.116.24-.48.36-1.104.36-1.872 0-.984-.204-1.728-.612-2.232-.408-.504-.894-.852-1.458-1.044a5.171 5.171 0 00-1.674-.288h-3.852v7.236zm22.68 14.184c-2.808 0-4.95-.828-6.426-2.484-1.476-1.656-2.214-4.044-2.214-7.164 0-3.144.738-5.544 2.214-7.2 1.476-1.656 3.618-2.484 6.426-2.484 2.784 0 4.902.828 6.354 2.484 1.452 1.656 2.178 4.056 2.178 7.2 0 3.12-.72 5.508-2.16 7.164-1.44 1.656-3.564 2.484-6.372 2.484zm-.036-3.636c1.344 0 2.334-.504 2.97-1.512.636-1.008.954-2.52.954-4.536 0-1.992-.318-3.492-.954-4.5-.636-1.008-1.626-1.512-2.97-1.512-1.368 0-2.37.498-3.006 1.494-.636.996-.954 2.514-.954 4.554 0 1.992.318 3.492.954 4.5.636 1.008 1.638 1.512 3.006 1.512zm14.868 10.836c-1.272 0-1.908-.348-1.908-1.044V449.22c0-1.128-.036-2.016-.108-2.664a16.032 16.032 0 00-.216-1.476 3.978 3.978 0 01-.108-.756c0-.192.132-.354.396-.486s.582-.24.954-.324a8.997 8.997 0 011.116-.18c.372-.036.642-.054.81-.054.36 0 .624.132.792.396a3 3 0 01.378.936l.234 1.008a6.57 6.57 0 012.178-1.962c.876-.492 1.854-.738 2.934-.738 1.368 0 2.568.384 3.6 1.152 1.032.768 1.83 1.878 2.394 3.33.564 1.452.846 3.186.846 5.202 0 3-.672 5.358-2.016 7.074-1.344 1.716-3.168 2.574-5.472 2.574-.936 0-1.746-.138-2.43-.414a8.578 8.578 0 01-1.782-.954v7.524c0 .696-.636 1.044-1.908 1.044h-.684zm5.796-10.872c1.296 0 2.262-.504 2.898-1.512.636-1.008.954-2.472.954-4.392 0-1.944-.288-3.432-.864-4.464-.576-1.032-1.428-1.548-2.556-1.548-.72 0-1.386.216-1.998.648a7.224 7.224 0 00-1.638 1.62v8.64a6.73 6.73 0 001.44.72 5.132 5.132 0 001.764.288zm23.256 3.492c-1.272 0-1.908-.348-1.908-1.044V449.22c0-1.128-.036-2.016-.108-2.664a16.032 16.032 0 00-.216-1.476 3.978 3.978 0 01-.108-.756c0-.192.132-.354.396-.486s.588-.24.972-.324a9.66 9.66 0 011.134-.18c.372-.036.642-.054.81-.054.36 0 .624.132.792.396a3 3 0 01.378.936l.234 1.008c.6-.744 1.374-1.38 2.322-1.908a6.292 6.292 0 013.114-.792c1.824 0 3.192.486 4.104 1.458.912.972 1.368 2.43 1.368 4.374v12.276c0 .696-.636 1.044-1.908 1.044h-.684c-1.272 0-1.908-.348-1.908-1.044v-11.664c0-.84-.216-1.494-.648-1.962-.432-.468-1.116-.702-2.052-.702-.768 0-1.446.24-2.034.72-.588.48-1.062.984-1.422 1.512v12.096c0 .696-.636 1.044-1.908 1.044h-.72zm26.496.18c-3.168 0-5.496-.84-6.984-2.52-1.488-1.68-2.232-4.02-2.232-7.02 0-2.304.354-4.176 1.062-5.616.708-1.44 1.71-2.496 3.006-3.168 1.296-.672 2.82-1.008 4.572-1.008 1.824 0 3.294.402 4.41 1.206 1.116.804 1.938 1.908 2.466 3.312.528 1.404.792 3.006.792 4.806 0 .168-.102.408-.306.72a4.271 4.271 0 01-.702.828c-.264.24-.468.36-.612.36h-9.936c.12 1.608.576 2.754 1.368 3.438.792.684 1.872 1.026 3.24 1.026.864 0 1.614-.108 2.25-.324a14.003 14.003 0 001.584-.63c.42-.204.702-.306.846-.306.216 0 .456.162.72.486.264.324.486.672.666 1.044.18.372.27.666.27.882 0 .384-.21.726-.63 1.026-.42.3-.966.564-1.638.792-.672.228-1.38.396-2.124.504-.744.108-1.44.162-2.088.162zm-4.464-11.34h7.056c0-1.344-.258-2.406-.774-3.186-.516-.78-1.326-1.17-2.43-1.17-1.032 0-1.89.336-2.574 1.008-.684.672-1.11 1.788-1.278 3.348zm19.944 11.16c-.504 0-.912-.06-1.224-.18-.312-.12-.492-.288-.54-.504l-4.608-16.848a2.846 2.846 0 00-.09-.342.888.888 0 01-.054-.27c0-.264.162-.468.486-.612.324-.144.846-.216 1.566-.216.768 0 1.338.054 1.71.162.372.108.582.282.63.522l2.448 9.792c.144.528.27 1.104.378 1.728.108.624.198 1.176.27 1.656h.144a27.637 27.637 0 01.72-3.456l2.412-9.684c.072-.264.258-.45.558-.558.3-.108.702-.162 1.206-.162h.684c.432 0 .822.054 1.17.162.348.108.546.294.594.558l2.448 9.792c.216.816.372 1.5.468 2.052.096.552.168 1.02.216 1.404h.072c.096-.528.198-1.11.306-1.746a18.31 18.31 0 01.378-1.746l2.448-9.792c.048-.24.24-.414.576-.522.336-.108.78-.162 1.332-.162 1.296 0 1.944.276 1.944.828v.234a.853.853 0 01-.072.306l-4.464 16.92c-.048.216-.246.384-.594.504s-.738.18-1.17.18h-1.548c-.504 0-.912-.06-1.224-.18-.312-.12-.492-.288-.54-.504l-2.34-9.144c-.12-.48-.216-.978-.288-1.494a82.28 82.28 0 00-.216-1.458h-.108c-.048.432-.108.906-.18 1.422a16.367 16.367 0 01-.288 1.53l-2.268 9.144c-.048.216-.246.384-.594.504s-.75.18-1.206.18h-1.548zm35.532 0c-.504 0-.912-.06-1.224-.18-.312-.12-.492-.288-.54-.504l-4.608-16.848a2.846 2.846 0 00-.09-.342.888.888 0 01-.054-.27c0-.264.162-.468.486-.612.324-.144.846-.216 1.566-.216.768 0 1.338.054 1.71.162.372.108.582.282.63.522l2.448 9.792c.144.528.27 1.104.378 1.728.108.624.198 1.176.27 1.656h.144a27.637 27.637 0 01.72-3.456l2.412-9.684c.072-.264.258-.45.558-.558.3-.108.702-.162 1.206-.162h.684c.432 0 .822.054 1.17.162.348.108.546.294.594.558l2.448 9.792c.216.816.372 1.5.468 2.052.096.552.168 1.02.216 1.404h.072c.096-.528.198-1.11.306-1.746a18.31 18.31 0 01.378-1.746l2.448-9.792c.048-.24.24-.414.576-.522.336-.108.78-.162 1.332-.162 1.296 0 1.944.276 1.944.828v.234a.853.853 0 01-.072.306l-4.464 16.92c-.048.216-.246.384-.594.504s-.738.18-1.17.18h-1.548c-.504 0-.912-.06-1.224-.18-.312-.12-.492-.288-.54-.504l-2.34-9.144c-.12-.48-.216-.978-.288-1.494a82.28 82.28 0 00-.216-1.458h-.108c-.048.432-.108.906-.18 1.422a16.367 16.367 0 01-.288 1.53l-2.268 9.144c-.048.216-.246.384-.594.504s-.75.18-1.206.18h-1.548zm24.012 0c-1.272 0-1.908-.348-1.908-1.044v-16.884c0-.696.636-1.044 1.908-1.044h.72c1.272 0 1.908.348 1.908 1.044v16.884c0 .696-.636 1.044-1.908 1.044h-.72zm.36-20.988c-.816 0-1.404-.09-1.764-.27-.36-.18-.54-.438-.54-.774v-2.592c0-.336.18-.588.54-.756.36-.168.948-.252 1.764-.252.816 0 1.404.084 1.764.252.36.168.54.42.54.756v2.592c0 .336-.18.594-.54.774-.36.18-.948.27-1.764.27zm9.18 20.988c-1.272 0-1.908-.348-1.908-1.044V449.22c0-1.128-.036-2.016-.108-2.664a16.032 16.032 0 00-.216-1.476 3.978 3.978 0 01-.108-.756c0-.192.132-.354.396-.486s.588-.24.972-.324a9.66 9.66 0 011.134-.18c.372-.036.642-.054.81-.054.36 0 .624.132.792.396a3 3 0 01.378.936l.234 1.008c.6-.744 1.374-1.38 2.322-1.908a6.292 6.292 0 013.114-.792c1.824 0 3.192.486 4.104 1.458.912.972 1.368 2.43 1.368 4.374v12.276c0 .696-.636 1.044-1.908 1.044h-.684c-1.272 0-1.908-.348-1.908-1.044v-11.664c0-.84-.216-1.494-.648-1.962-.432-.468-1.116-.702-2.052-.702-.768 0-1.446.24-2.034.72-.588.48-1.062.984-1.422 1.512v12.096c0 .696-.636 1.044-1.908 1.044h-.72zm24.084.18c-1.344 0-2.526-.384-3.546-1.152-1.02-.768-1.824-1.878-2.412-3.33-.588-1.452-.882-3.186-.882-5.202 0-3 .672-5.358 2.016-7.074 1.344-1.716 3.18-2.574 5.508-2.574.936 0 1.74.132 2.412.396a7.29 7.29 0 011.764.972V435.9c0-.672.636-1.008 1.908-1.008h.72c1.272 0 1.908.336 1.908 1.008v20.124c0 1.152.036 2.058.108 2.718.072.66.144 1.152.216 1.476.072.324.108.582.108.774 0 .192-.132.354-.396.486s-.588.24-.972.324a9.66 9.66 0 01-1.134.18 9.477 9.477 0 01-.81.054c-.36 0-.624-.138-.792-.414a2.927 2.927 0 01-.36-.99 42.912 42.912 0 00-.216-1.08 6.515 6.515 0 01-2.196 1.962c-.888.492-1.872.738-2.952.738zm1.26-3.744c.72 0 1.386-.216 1.998-.648a6.632 6.632 0 001.602-1.62v-8.64a4.838 4.838 0 00-1.422-.738 5.488 5.488 0 00-1.746-.27c-1.296 0-2.268.504-2.916 1.512-.648 1.008-.972 2.472-.972 4.392 0 1.944.288 3.432.864 4.464.576 1.032 1.44 1.548 2.592 1.548zm20.916 3.744c-2.808 0-4.95-.828-6.426-2.484-1.476-1.656-2.214-4.044-2.214-7.164 0-3.144.738-5.544 2.214-7.2 1.476-1.656 3.618-2.484 6.426-2.484 2.784 0 4.902.828 6.354 2.484 1.452 1.656 2.178 4.056 2.178 7.2 0 3.12-.72 5.508-2.16 7.164-1.44 1.656-3.564 2.484-6.372 2.484zm-.036-3.636c1.344 0 2.334-.504 2.97-1.512.636-1.008.954-2.52.954-4.536 0-1.992-.318-3.492-.954-4.5-.636-1.008-1.626-1.512-2.97-1.512-1.368 0-2.37.498-3.006 1.494-.636.996-.954 2.514-.954 4.554 0 1.992.318 3.492.954 4.5.636 1.008 1.638 1.512 3.006 1.512zm17.172 3.456c-.504 0-.912-.06-1.224-.18-.312-.12-.492-.288-.54-.504l-4.608-16.848a2.846 2.846 0 00-.09-.342.888.888 0 01-.054-.27c0-.264.162-.468.486-.612.324-.144.846-.216 1.566-.216.768 0 1.338.054 1.71.162.372.108.582.282.63.522l2.448 9.792c.144.528.27 1.104.378 1.728.108.624.198 1.176.27 1.656h.144a27.637 27.637 0 01.72-3.456l2.412-9.684c.072-.264.258-.45.558-.558.3-.108.702-.162 1.206-.162h.684c.432 0 .822.054 1.17.162.348.108.546.294.594.558l2.448 9.792c.216.816.372 1.5.468 2.052.096.552.168 1.02.216 1.404h.072c.096-.528.198-1.11.306-1.746a18.31 18.31 0 01.378-1.746l2.448-9.792c.048-.24.24-.414.576-.522.336-.108.78-.162 1.332-.162 1.296 0 1.944.276 1.944.828v.234a.853.853 0 01-.072.306l-4.464 16.92c-.048.216-.246.384-.594.504s-.738.18-1.17.18h-1.548c-.504 0-.912-.06-1.224-.18-.312-.12-.492-.288-.54-.504l-2.34-9.144c-.12-.48-.216-.978-.288-1.494a82.28 82.28 0 00-.216-1.458h-.108c-.048.432-.108.906-.18 1.422a16.367 16.367 0 01-.288 1.53l-2.268 9.144c-.048.216-.246.384-.594.504s-.75.18-1.206.18h-1.548zm26.604.216c-.936 0-1.86-.108-2.772-.324-.912-.216-1.656-.504-2.232-.864-.576-.36-.864-.756-.864-1.188 0-.264.096-.582.288-.954.192-.372.42-.714.684-1.026.264-.312.504-.468.72-.468.144 0 .384.096.72.288.336.192.762.39 1.278.594.516.204 1.122.306 1.818.306 1.776 0 2.664-.648 2.664-1.944 0-.672-.3-1.182-.9-1.53-.6-.348-1.344-.702-2.232-1.062a19.97 19.97 0 01-2.088-.972 4.942 4.942 0 01-1.8-1.656c-.48-.72-.72-1.692-.72-2.916 0-1.176.264-2.184.792-3.024.528-.84 1.272-1.494 2.232-1.962.96-.468 2.064-.702 3.312-.702.744 0 1.518.072 2.322.216.804.144 1.482.36 2.034.648.552.288.828.636.828 1.044 0 .24-.078.564-.234.972a6.235 6.235 0 01-.54 1.098c-.204.324-.414.486-.63.486-.168 0-.516-.138-1.044-.414-.528-.276-1.26-.414-2.196-.414-.696 0-1.26.138-1.692.414-.432.276-.648.702-.648 1.278 0 .624.246 1.098.738 1.422.492.324 1.218.654 2.178.99.768.264 1.518.606 2.25 1.026a5.421 5.421 0 011.836 1.746c.492.744.738 1.728.738 2.952 0 1.152-.282 2.178-.846 3.078-.564.9-1.35 1.602-2.358 2.106-1.008.504-2.22.756-3.636.756zm20.916-.216c-1.272 0-1.908-.348-1.908-1.044v-16.884c0-.696.636-1.044 1.908-1.044h.72c1.272 0 1.908.348 1.908 1.044v16.884c0 .696-.636 1.044-1.908 1.044h-.72zm.36-20.988c-.816 0-1.404-.09-1.764-.27-.36-.18-.54-.438-.54-.774v-2.592c0-.336.18-.588.54-.756.36-.168.948-.252 1.764-.252.816 0 1.404.084 1.764.252.36.168.54.42.54.756v2.592c0 .336-.18.594-.54.774-.36.18-.948.27-1.764.27zm9.18 20.988c-1.272 0-1.908-.348-1.908-1.044V449.22c0-1.128-.036-2.016-.108-2.664a16.032 16.032 0 00-.216-1.476 3.978 3.978 0 01-.108-.756c0-.192.132-.354.396-.486s.588-.24.972-.324a9.66 9.66 0 011.134-.18c.372-.036.642-.054.81-.054.36 0 .624.132.792.396a3 3 0 01.378.936l.234 1.008c.6-.744 1.374-1.38 2.322-1.908a6.292 6.292 0 013.114-.792c1.824 0 3.192.486 4.104 1.458.912.972 1.368 2.43 1.368 4.374v12.276c0 .696-.636 1.044-1.908 1.044h-.684c-1.272 0-1.908-.348-1.908-1.044v-11.664c0-.84-.216-1.494-.648-1.962-.432-.468-1.116-.702-2.052-.702-.768 0-1.446.24-2.034.72-.588.48-1.062.984-1.422 1.512v12.096c0 .696-.636 1.044-1.908 1.044h-.72zm29.016 0c-1.272 0-1.908-.348-1.908-1.044v-22.896c0-.888.432-1.332 1.296-1.332h6.696c3 0 5.226.552 6.678 1.656 1.452 1.104 2.178 2.76 2.178 4.968 0 1.44-.384 2.652-1.152 3.636-.768.984-1.776 1.728-3.024 2.232v.144c.552.192 1.068.63 1.548 1.314s.9 1.482 1.26 2.394l3.06 7.632c.096.288.144.492.144.612 0 .456-.648.684-1.944.684h-1.08c-.48 0-.888-.054-1.224-.162-.336-.108-.552-.282-.648-.522l-2.808-7.056c-.408-.96-.9-1.638-1.476-2.034-.576-.396-1.5-.594-2.772-.594h-2.016v9.324c0 .696-.636 1.044-1.908 1.044h-.9zm2.808-14.436h3.888c.624 0 1.194-.162 1.71-.486a3.526 3.526 0 001.224-1.296c.3-.54.45-1.134.45-1.782 0-1.056-.33-1.86-.99-2.412-.66-.552-1.542-.828-2.646-.828h-3.636v6.804zm25.272 14.616c-3.168 0-5.496-.84-6.984-2.52-1.488-1.68-2.232-4.02-2.232-7.02 0-2.304.354-4.176 1.062-5.616.708-1.44 1.71-2.496 3.006-3.168 1.296-.672 2.82-1.008 4.572-1.008 1.824 0 3.294.402 4.41 1.206 1.116.804 1.938 1.908 2.466 3.312.528 1.404.792 3.006.792 4.806 0 .168-.102.408-.306.72a4.271 4.271 0 01-.702.828c-.264.24-.468.36-.612.36h-9.936c.12 1.608.576 2.754 1.368 3.438.792.684 1.872 1.026 3.24 1.026.864 0 1.614-.108 2.25-.324a14.003 14.003 0 001.584-.63c.42-.204.702-.306.846-.306.216 0 .456.162.72.486.264.324.486.672.666 1.044.18.372.27.666.27.882 0 .384-.21.726-.63 1.026-.42.3-.966.564-1.638.792-.672.228-1.38.396-2.124.504-.744.108-1.44.162-2.088.162zm-4.464-11.34h7.056c0-1.344-.258-2.406-.774-3.186-.516-.78-1.326-1.17-2.43-1.17-1.032 0-1.89.336-2.574 1.008-.684.672-1.11 1.788-1.278 3.348zm20.196 11.34c-1.872 0-3.276-.486-4.212-1.458-.936-.972-1.404-2.25-1.404-3.834 0-1.008.204-1.92.612-2.736.408-.816 1.038-1.518 1.89-2.106.852-.588 1.974-1.032 3.366-1.332 1.392-.3 3.072-.462 5.04-.486v-1.368c0-.72-.246-1.296-.738-1.728-.492-.432-1.314-.648-2.466-.648-.936 0-1.752.108-2.448.324-.696.216-1.254.432-1.674.648-.42.216-.702.324-.846.324-.216 0-.456-.168-.72-.504a5.184 5.184 0 01-.666-1.116c-.18-.408-.27-.708-.27-.9 0-.384.3-.762.9-1.134.6-.372 1.422-.678 2.466-.918 1.044-.24 2.202-.36 3.474-.36 1.752 0 3.18.246 4.284.738 1.104.492 1.92 1.176 2.448 2.052.528.876.792 1.902.792 3.078v7.236c0 1.152.036 2.058.108 2.718.072.66.144 1.152.216 1.476.072.324.108.582.108.774 0 .192-.132.354-.396.486s-.588.24-.972.324a9.781 9.781 0 01-1.116.18c-.36.036-.636.054-.828.054-.36 0-.624-.138-.792-.414a2.936 2.936 0 01-.36-1.008c-.072-.396-.144-.75-.216-1.062-.216.264-.564.612-1.044 1.044-.48.432-1.092.816-1.836 1.152-.744.336-1.644.504-2.7.504zm1.224-3.636c.912 0 1.71-.234 2.394-.702a6.171 6.171 0 001.674-1.674v-2.736c-.888 0-1.71.048-2.466.144a9.225 9.225 0 00-2.016.468c-.588.216-1.038.522-1.35.918-.312.396-.468.894-.468 1.494 0 .648.186 1.158.558 1.53.372.372.93.558 1.674.558zm21.816 3.636c-3 0-5.25-.774-6.75-2.322s-2.25-3.978-2.25-7.29c0-1.704.204-3.168.612-4.392.408-1.224 1.002-2.232 1.782-3.024.78-.792 1.728-1.374 2.844-1.746 1.116-.372 2.382-.558 3.798-.558.888 0 1.77.084 2.646.252.876.168 1.614.42 2.214.756.6.336.9.732.9 1.188 0 .192-.096.492-.288.9a5.81 5.81 0 01-.666 1.098c-.252.324-.486.486-.702.486a.553.553 0 01-.216-.072 4.291 4.291 0 00-.324-.144c-.312-.168-.75-.348-1.314-.54-.564-.192-1.266-.288-2.106-.288-1.488 0-2.604.474-3.348 1.422-.744.948-1.116 2.466-1.116 4.554 0 2.064.342 3.594 1.026 4.59.684.996 1.83 1.494 3.438 1.494.888 0 1.638-.108 2.25-.324a39.642 39.642 0 001.458-.54c.12-.048.228-.09.324-.126a.69.69 0 01.216-.054c.24 0 .486.156.738.468.252.312.468.66.648 1.044s.27.684.27.9c0 .408-.222.756-.666 1.044-.444.288-.996.522-1.656.702-.66.18-1.332.312-2.016.396-.684.084-1.266.126-1.746.126zm15.012 0c-.696 0-1.35-.096-1.962-.288a4.067 4.067 0 01-1.602-.936c-.456-.432-.816-1.002-1.08-1.71-.264-.708-.396-1.566-.396-2.574v-9.936h-.972c-.648 0-.972-.516-.972-1.548v-.54c0-1.032.324-1.548.972-1.548h.972l.468-3.528c.096-.696.648-1.044 1.656-1.044h.864c1.032 0 1.548.348 1.548 1.044v3.528h2.196c.648 0 .972.516.972 1.548v.54c0 1.032-.324 1.548-.972 1.548h-2.196v9.864c0 .72.132 1.224.396 1.512.264.288.636.432 1.116.432.312 0 .558-.024.738-.072.18-.048.33-.072.45-.072.216 0 .396.168.54.504a6.1 6.1 0 01.342 1.062c.084.372.126.606.126.702 0 .456-.192.798-.576 1.026a3.135 3.135 0 01-1.314.414c-.492.048-.93.072-1.314.072zm5.436 4.14c-.264 0-.564-.054-.9-.162-.336-.108-.504-.294-.504-.558 0-.144.03-.306.09-.486s.138-.378.234-.594c.288-.648.57-1.452.846-2.412s.414-2.196.414-3.708c0-.432.156-.78.468-1.044.312-.264.792-.396 1.44-.396h.54c.672 0 1.158.126 1.458.378.3.252.45.582.45.99a9.28 9.28 0 01-.486 2.988 11.35 11.35 0 01-1.224 2.574c-.492.756-.99 1.35-1.494 1.782-.504.432-.948.648-1.332.648zm-385.902 37.86c-1.8 0-3.162-.486-4.086-1.458-.924-.972-1.386-2.43-1.386-4.374v-12.276c0-.696.636-1.044 1.908-1.044h.684c1.272 0 1.908.348 1.908 1.044v11.664c0 .84.216 1.494.648 1.962.432.468 1.116.702 2.052.702.768 0 1.446-.24 2.034-.72.588-.48 1.062-.984 1.422-1.512v-12.096c0-.696.636-1.044 1.908-1.044h.72c1.272 0 1.908.348 1.908 1.044v11.88c0 1.152.036 2.058.108 2.718.072.66.144 1.152.216 1.476.072.324.108.582.108.774 0 .192-.132.354-.396.486s-.588.24-.972.324a9.66 9.66 0 01-1.134.18 9.477 9.477 0 01-.81.054c-.36 0-.624-.138-.792-.414a3.21 3.21 0 01-.378-1.008 61.81 61.81 0 00-.234-1.062c-.6.72-1.374 1.35-2.322 1.89-.948.54-1.986.81-3.114.81zm19.26.036c-.936 0-1.86-.108-2.772-.324-.912-.216-1.656-.504-2.232-.864-.576-.36-.864-.756-.864-1.188 0-.264.096-.582.288-.954.192-.372.42-.714.684-1.026.264-.312.504-.468.72-.468.144 0 .384.096.72.288.336.192.762.39 1.278.594.516.204 1.122.306 1.818.306 1.776 0 2.664-.648 2.664-1.944 0-.672-.3-1.182-.9-1.53-.6-.348-1.344-.702-2.232-1.062a19.97 19.97 0 01-2.088-.972 4.942 4.942 0 01-1.8-1.656c-.48-.72-.72-1.692-.72-2.916 0-1.176.264-2.184.792-3.024.528-.84 1.272-1.494 2.232-1.962.96-.468 2.064-.702 3.312-.702.744 0 1.518.072 2.322.216.804.144 1.482.36 2.034.648.552.288.828.636.828 1.044 0 .24-.078.564-.234.972a6.235 6.235 0 01-.54 1.098c-.204.324-.414.486-.63.486-.168 0-.516-.138-1.044-.414-.528-.276-1.26-.414-2.196-.414-.696 0-1.26.138-1.692.414-.432.276-.648.702-.648 1.278 0 .624.246 1.098.738 1.422.492.324 1.218.654 2.178.99.768.264 1.518.606 2.25 1.026a5.421 5.421 0 011.836 1.746c.492.744.738 1.728.738 2.952 0 1.152-.282 2.178-.846 3.078-.564.9-1.35 1.602-2.358 2.106-1.008.504-2.22.756-3.636.756zm12.276-.216c-1.272 0-1.908-.348-1.908-1.044v-16.884c0-.696.636-1.044 1.908-1.044h.72c1.272 0 1.908.348 1.908 1.044v16.884c0 .696-.636 1.044-1.908 1.044h-.72zm.36-20.988c-.816 0-1.404-.09-1.764-.27-.36-.18-.54-.438-.54-.774v-2.592c0-.336.18-.588.54-.756.36-.168.948-.252 1.764-.252.816 0 1.404.084 1.764.252.36.168.54.42.54.756v2.592c0 .336-.18.594-.54.774-.36.18-.948.27-1.764.27zm9.18 20.988c-1.272 0-1.908-.348-1.908-1.044V491.22c0-1.128-.036-2.016-.108-2.664a16.032 16.032 0 00-.216-1.476 3.978 3.978 0 01-.108-.756c0-.192.132-.354.396-.486s.588-.24.972-.324a9.66 9.66 0 011.134-.18c.372-.036.642-.054.81-.054.36 0 .624.132.792.396a3 3 0 01.378.936l.234 1.008c.6-.744 1.374-1.38 2.322-1.908a6.292 6.292 0 013.114-.792c1.824 0 3.192.486 4.104 1.458.912.972 1.368 2.43 1.368 4.374v12.276c0 .696-.636 1.044-1.908 1.044h-.684c-1.272 0-1.908-.348-1.908-1.044v-11.664c0-.84-.216-1.494-.648-1.962-.432-.468-1.116-.702-2.052-.702-.768 0-1.446.24-2.034.72-.588.48-1.062.984-1.422 1.512v12.096c0 .696-.636 1.044-1.908 1.044h-.72zm24.948 7.56c-1.752 0-3.234-.174-4.446-.522-1.212-.348-2.13-.888-2.754-1.62-.624-.732-.936-1.65-.936-2.754 0-.96.288-1.812.864-2.556.576-.744 1.368-1.32 2.376-1.728l.036-.108a3.024 3.024 0 01-1.116-1.152c-.264-.48-.396-1.032-.396-1.656 0-.696.186-1.32.558-1.872.372-.552.882-1.032 1.53-1.44-.936-.48-1.662-1.146-2.178-1.998-.516-.852-.774-1.878-.774-3.078 0-1.416.318-2.58.954-3.492.636-.912 1.524-1.596 2.664-2.052 1.14-.456 2.43-.684 3.87-.684.456 0 .9.018 1.332.054.432.036.84.102 1.224.198h6.048c.648 0 .972.516.972 1.548v.54c0 .984-.276 1.476-.828 1.476-.192 0-.522-.03-.99-.09a8.497 8.497 0 01-1.098-.198l-.036.108a4.15 4.15 0 01.9 2.592c0 1.32-.306 2.424-.918 3.312-.612.888-1.464 1.56-2.556 2.016-1.092.456-2.358.684-3.798.684-1.08 0-1.812.126-2.196.378-.384.252-.576.63-.576 1.134 0 .528.276.912.828 1.152.552.24 1.254.408 2.106.504.852.096 1.758.216 2.718.36a13.46 13.46 0 012.772.774c.864.348 1.56.858 2.088 1.53s.792 1.596.792 2.772c0 1.2-.36 2.238-1.08 3.114-.72.876-1.758 1.554-3.114 2.034-1.356.48-2.97.72-4.842.72zm.396-3.6c1.44 0 2.508-.186 3.204-.558.696-.372 1.044-.894 1.044-1.566 0-.432-.162-.768-.486-1.008-.324-.24-.774-.426-1.35-.558a20.364 20.364 0 00-2.034-.342c-.78-.096-1.626-.204-2.538-.324-.6.24-1.086.558-1.458.954-.372.396-.558.846-.558 1.35 0 .672.33 1.182.99 1.53.66.348 1.722.522 3.186.522zm-.144-14.256c.888 0 1.644-.204 2.268-.612.624-.408.936-1.116.936-2.124 0-.984-.312-1.686-.936-2.106-.624-.42-1.38-.63-2.268-.63-.888 0-1.644.21-2.268.63-.624.42-.936 1.122-.936 2.106 0 1.008.312 1.716.936 2.124.624.408 1.38.612 2.268.612zM555 504.072c-.432 0-.792-.048-1.08-.144-.288-.096-.456-.252-.504-.468l-4.716-16.992a3.945 3.945 0 00-.09-.36 1.063 1.063 0 01-.054-.288c0-.24.144-.42.432-.54.288-.12.756-.18 1.404-.18.528 0 .954.048 1.278.144.324.096.51.252.558.468L555 496.476c.12.456.246 1.056.378 1.8s.258 1.416.378 2.016h.144a29 29 0 01.324-1.908c.144-.72.288-1.368.432-1.944l2.736-10.692c.072-.24.246-.408.522-.504.276-.096.63-.144 1.062-.144h.432c.384 0 .726.048 1.026.144.3.096.474.264.522.504l2.772 10.728c.264.888.444 1.632.54 2.232.096.6.18 1.152.252 1.656h.072c.12-.6.24-1.26.36-1.98s.252-1.344.396-1.872l2.772-10.8c.048-.216.228-.372.54-.468a3.819 3.819 0 011.116-.144c1.104 0 1.656.24 1.656.72v.216a.83.83 0 01-.072.288l-4.68 17.136c-.048.216-.222.372-.522.468-.3.096-.654.144-1.062.144H565.8c-.408 0-.756-.048-1.044-.144-.288-.096-.456-.252-.504-.468l-2.628-10.404c-.096-.408-.186-.87-.27-1.386a79.473 79.473 0 01-.234-1.53h-.108c-.072.48-.15.978-.234 1.494-.084.516-.174.978-.27 1.386l-2.628 10.44c-.048.216-.228.372-.54.468a3.678 3.678 0 01-1.08.144H555zm24.084 0c-1.104 0-1.656-.3-1.656-.9V486c0-.6.552-.9 1.656-.9h.36c1.104 0 1.656.3 1.656.9v17.172c0 .6-.552.9-1.656.9h-.36zm.18-21.276c-.672 0-1.158-.078-1.458-.234-.3-.156-.45-.378-.45-.666v-2.34c0-.288.15-.51.45-.666.3-.156.786-.234 1.458-.234.672 0 1.158.078 1.458.234.3.156.45.378.45.666v2.34c0 .288-.15.51-.45.666-.3.156-.786.234-1.458.234zm9.252 21.276c-1.104 0-1.656-.3-1.656-.9v-12.276c0-1.056-.036-1.908-.108-2.556a16.032 16.032 0 00-.216-1.476c-.072-.336-.108-.552-.108-.648 0-.192.102-.348.306-.468.204-.12.45-.216.738-.288a5.41 5.41 0 01.864-.144c.288-.024.504-.036.648-.036.312 0 .552.132.72.396.168.264.288.582.36.954.072.372.144.714.216 1.026a8.236 8.236 0 012.502-1.98 6.524 6.524 0 013.042-.756c1.848 0 3.264.504 4.248 1.512.984 1.008 1.476 2.448 1.476 4.32v12.42c0 .6-.552.9-1.656.9h-.396c-1.104 0-1.656-.3-1.656-.9v-11.988c0-.984-.27-1.746-.81-2.286s-1.35-.81-2.43-.81c-.792 0-1.542.228-2.25.684a6.476 6.476 0 00-1.782 1.692v12.708c0 .6-.552.9-1.656.9h-.396zm24.228.18c-1.392 0-2.604-.402-3.636-1.206-1.032-.804-1.836-1.932-2.412-3.384-.576-1.452-.864-3.138-.864-5.058 0-3.096.678-5.484 2.034-7.164 1.356-1.68 3.138-2.52 5.346-2.52 1.056 0 1.956.156 2.7.468a9.157 9.157 0 012.052 1.188v-8.784c0-.6.54-.9 1.62-.9h.396c1.104 0 1.656.3 1.656.9v20.592c0 1.056.036 1.908.108 2.556.072.648.144 1.14.216 1.476.072.336.108.564.108.684 0 .192-.102.348-.306.468-.204.12-.45.216-.738.288a5.41 5.41 0 01-.864.144 8.545 8.545 0 01-.648.036.758.758 0 01-.702-.414 3.537 3.537 0 01-.36-1.008 61.81 61.81 0 00-.234-1.062c-.744.864-1.578 1.53-2.502 1.998a6.481 6.481 0 01-2.97.702zm.9-3.132c.768 0 1.524-.216 2.268-.648a8.111 8.111 0 002.052-1.728v-9.36a6.294 6.294 0 00-1.8-.99 6.247 6.247 0 00-2.088-.342c-1.464 0-2.568.546-3.312 1.638-.744 1.092-1.116 2.658-1.116 4.698 0 2.16.342 3.822 1.026 4.986.684 1.164 1.674 1.746 2.97 1.746zm21.06 3.132c-2.736 0-4.83-.828-6.282-2.484-1.452-1.656-2.178-4.032-2.178-7.128 0-3.12.726-5.52 2.178-7.2 1.452-1.68 3.546-2.52 6.282-2.52 2.712 0 4.782.834 6.21 2.502 1.428 1.668 2.142 4.074 2.142 7.218 0 3.12-.702 5.502-2.106 7.146-1.404 1.644-3.486 2.466-6.246 2.466zm-.072-3.06c1.608 0 2.784-.54 3.528-1.62.744-1.08 1.116-2.736 1.116-4.968 0-2.232-.372-3.894-1.116-4.986-.744-1.092-1.92-1.638-3.528-1.638-1.584 0-2.742.54-3.474 1.62-.732 1.08-1.098 2.748-1.098 5.004 0 2.232.366 3.888 1.098 4.968.732 1.08 1.89 1.62 3.474 1.62zm17.316 2.88c-.432 0-.792-.048-1.08-.144-.288-.096-.456-.252-.504-.468l-4.716-16.992a3.945 3.945 0 00-.09-.36 1.063 1.063 0 01-.054-.288c0-.24.144-.42.432-.54.288-.12.756-.18 1.404-.18.528 0 .954.048 1.278.144.324.096.51.252.558.468l2.772 10.764c.12.456.246 1.056.378 1.8s.258 1.416.378 2.016h.144a29 29 0 01.324-1.908c.144-.72.288-1.368.432-1.944l2.736-10.692c.072-.24.246-.408.522-.504.276-.096.63-.144 1.062-.144h.432c.384 0 .726.048 1.026.144.3.096.474.264.522.504l2.772 10.728c.264.888.444 1.632.54 2.232.096.6.18 1.152.252 1.656h.072c.12-.6.24-1.26.36-1.98s.252-1.344.396-1.872l2.772-10.8c.048-.216.228-.372.54-.468a3.819 3.819 0 011.116-.144c1.104 0 1.656.24 1.656.72v.216a.83.83 0 01-.072.288l-4.68 17.136c-.048.216-.222.372-.522.468-.3.096-.654.144-1.062.144h-1.296c-.408 0-.756-.048-1.044-.144-.288-.096-.456-.252-.504-.468l-2.628-10.404c-.096-.408-.186-.87-.27-1.386a79.473 79.473 0 01-.234-1.53h-.108c-.072.48-.15.978-.234 1.494-.084.516-.174.978-.27 1.386l-2.628 10.44c-.048.216-.228.372-.54.468a3.678 3.678 0 01-1.08.144h-1.26zm21.24 0c-1.104 0-1.656-.3-1.656-.9v-2.628c0-.6.552-.9 1.656-.9h.756c1.104 0 1.656.3 1.656.9v2.628c0 .6-.552.9-1.656.9h-.756zm14.22.18c-2.736 0-4.83-.828-6.282-2.484-1.452-1.656-2.178-4.032-2.178-7.128 0-3.12.726-5.52 2.178-7.2 1.452-1.68 3.546-2.52 6.282-2.52 2.712 0 4.782.834 6.21 2.502 1.428 1.668 2.142 4.074 2.142 7.218 0 3.12-.702 5.502-2.106 7.146-1.404 1.644-3.486 2.466-6.246 2.466zm-.072-3.06c1.608 0 2.784-.54 3.528-1.62.744-1.08 1.116-2.736 1.116-4.968 0-2.232-.372-3.894-1.116-4.986-.744-1.092-1.92-1.638-3.528-1.638-1.584 0-2.742.54-3.474 1.62-.732 1.08-1.098 2.748-1.098 5.004 0 2.232.366 3.888 1.098 4.968.732 1.08 1.89 1.62 3.474 1.62zm14.832 10.26c-1.104 0-1.656-.288-1.656-.864v-19.692c0-1.056-.036-1.908-.108-2.556a16.032 16.032 0 00-.216-1.476c-.072-.336-.108-.552-.108-.648 0-.192.102-.348.306-.468.204-.12.45-.216.738-.288a5.41 5.41 0 01.864-.144c.288-.024.504-.036.648-.036.312 0 .552.132.72.396.168.264.294.582.378.954.084.372.162.702.234.99.744-.864 1.572-1.53 2.484-1.998a6.372 6.372 0 012.952-.702c1.44 0 2.676.408 3.708 1.224 1.032.816 1.824 1.95 2.376 3.402.552 1.452.828 3.138.828 5.058 0 3.072-.678 5.448-2.034 7.128-1.356 1.68-3.138 2.52-5.346 2.52-1.032 0-1.926-.162-2.682-.486a9.58 9.58 0 01-2.034-1.17v7.992c0 .576-.552.864-1.656.864h-.396zm5.94-10.332c1.488 0 2.592-.546 3.312-1.638.72-1.092 1.08-2.658 1.08-4.698 0-2.16-.342-3.822-1.026-4.986-.684-1.164-1.662-1.746-2.934-1.746-.768 0-1.524.216-2.268.648a8.111 8.111 0 00-2.052 1.728v9.36a7.247 7.247 0 001.8.972c.648.24 1.344.36 2.088.36zm20.952 3.132c-3.072 0-5.34-.81-6.804-2.43-1.464-1.62-2.196-3.99-2.196-7.11 0-2.208.336-4.032 1.008-5.472.672-1.44 1.644-2.52 2.916-3.24 1.272-.72 2.796-1.08 4.572-1.08 1.728 0 3.144.384 4.248 1.152 1.104.768 1.926 1.848 2.466 3.24.54 1.392.81 3.06.81 5.004 0 .144-.084.348-.252.612-.168.264-.36.504-.576.72-.216.216-.396.324-.54.324h-10.764c.144 1.824.636 3.15 1.476 3.978.84.828 2.064 1.242 3.672 1.242.984 0 1.818-.12 2.502-.36.684-.24 1.236-.474 1.656-.702.42-.228.702-.342.846-.342.192 0 .396.138.612.414.216.276.408.576.576.9.168.324.252.57.252.738 0 .288-.186.576-.558.864-.372.288-.87.546-1.494.774-.624.228-1.32.414-2.088.558a12.67 12.67 0 01-2.34.216zm-5.112-11.16h8.352c0-1.656-.312-2.922-.936-3.798-.624-.876-1.584-1.314-2.88-1.314-1.32 0-2.364.414-3.132 1.242-.768.828-1.236 2.118-1.404 3.87zm18.18 10.98c-1.104 0-1.656-.3-1.656-.9v-12.276c0-1.056-.036-1.908-.108-2.556a16.032 16.032 0 00-.216-1.476c-.072-.336-.108-.552-.108-.648 0-.192.102-.348.306-.468.204-.12.45-.216.738-.288a5.41 5.41 0 01.864-.144c.288-.024.504-.036.648-.036.312 0 .552.132.72.396.168.264.288.582.36.954.072.372.144.714.216 1.026a8.236 8.236 0 012.502-1.98 6.524 6.524 0 013.042-.756c1.848 0 3.264.504 4.248 1.512.984 1.008 1.476 2.448 1.476 4.32v12.42c0 .6-.552.9-1.656.9h-.396c-1.104 0-1.656-.3-1.656-.9v-11.988c0-.984-.27-1.746-.81-2.286s-1.35-.81-2.43-.81c-.792 0-1.542.228-2.25.684a6.476 6.476 0 00-1.782 1.692v12.708c0 .6-.552.9-1.656.9h-.396zm26.316 0c-1.32 0-1.98-.24-1.98-.72 0-.096.018-.192.054-.288.036-.096.066-.204.09-.324l8.136-23.328c.168-.456.78-.684 1.836-.684h1.584c1.08 0 1.692.228 1.836.684l8.136 23.328c.072.216.108.42.108.612 0 .48-.576.72-1.728.72H785.4c-.48 0-.882-.048-1.206-.144-.324-.096-.534-.276-.63-.54l-1.656-4.932h-9.216l-1.656 4.932c-.096.24-.282.414-.558.522-.276.108-.618.162-1.026.162h-1.008zm5.58-9.648h6.516l-2.628-7.92c-.12-.36-.222-.732-.306-1.116-.084-.384-.15-.756-.198-1.116h-.144c-.072.36-.144.732-.216 1.116a5.95 5.95 0 01-.324 1.116l-2.7 7.92zm18.972 9.648c-1.272 0-1.908-.348-1.908-1.044v-22.896c0-.888.432-1.332 1.296-1.332h7.488c.768 0 1.638.09 2.61.27.972.18 1.896.528 2.772 1.044.876.516 1.59 1.278 2.142 2.286.552 1.008.828 2.34.828 3.996 0 1.368-.21 2.514-.63 3.438-.42.924-.96 1.668-1.62 2.232a7.628 7.628 0 01-2.106 1.296c-.744.3-1.44.504-2.088.612-.648.108-1.164.162-1.548.162h-4.428v8.892c0 .696-.636 1.044-1.908 1.044h-.9zm2.808-14.004h4.032c.336 0 .714-.048 1.134-.144.42-.096.81-.276 1.17-.54.36-.264.66-.636.9-1.116.24-.48.36-1.104.36-1.872 0-.984-.204-1.728-.612-2.232-.408-.504-.894-.852-1.458-1.044a5.171 5.171 0 00-1.674-.288h-3.852v7.236zm17.712 14.04c-1.272 0-1.908-.36-1.908-1.08v-23.256c0-.72.636-1.08 1.908-1.08h.936c1.272 0 1.908.36 1.908 1.08v23.256c0 .72-.636 1.08-1.908 1.08h-.936zm8.676-.036c-1.272 0-1.908-.348-1.908-1.044v-2.988c0-.672.636-1.008 1.908-1.008h.972c1.272 0 1.908.336 1.908 1.008v2.988c0 .696-.636 1.044-1.908 1.044h-.972z" fill="#4A4A4A"/></g></svg>